<svg xmlns="http://www.w3.org/2000/svg" width="1280" height="800" viewBox="0 0 1280 800" role="img" aria-label="HttpMocker startup background">
  <defs>
    <linearGradient id="bg" x1="0" y1="0" x2="1280" y2="800" gradientUnits="userSpaceOnUse">
      <stop offset="0" stop-color="#07101d"/>
      <stop offset="0.48" stop-color="#0b1525"/>
      <stop offset="1" stop-color="#101827"/>
    </linearGradient>
    <linearGradient id="teal" x1="360" y1="180" x2="1110" y2="620" gradientUnits="userSpaceOnUse">
      <stop offset="0" stop-color="#34d399" stop-opacity="0.12"/>
      <stop offset="0.54" stop-color="#22d3ee" stop-opacity="0.2"/>
      <stop offset="1" stop-color="#4285f4" stop-opacity="0.08"/>
    </linearGradient>
    <linearGradient id="warm" x1="620" y1="30" x2="1250" y2="430" gradientUnits="userSpaceOnUse">
      <stop offset="0" stop-color="#4285f4" stop-opacity="0.1"/>
      <stop offset="0.55" stop-color="#8ab4f8" stop-opacity="0.08"/>
      <stop offset="1" stop-color="#34a853" stop-opacity="0.035"/>
    </linearGradient>
  </defs>

  <rect width="1280" height="800" fill="url(#bg)"/>
  <path d="M410 604C526 448 626 575 726 387C830 190 992 264 1148 102" fill="none" stroke="url(#teal)" stroke-width="124" stroke-linecap="round" opacity="0.7"/>
  <path d="M575 184C702 118 866 168 1012 104C1110 61 1190 66 1276 86" fill="none" stroke="url(#warm)" stroke-width="88" stroke-linecap="round" opacity="0.82"/>

  <g opacity="0.22" fill="none" stroke="#8ec8ff" stroke-width="1">
    <path d="M596 330h164l74 74h154"/>
    <path d="M660 462h126l66-66h172"/>
    <path d="M784 552h118l70-70h178"/>
    <path d="M870 255h112l64 64h112"/>
  </g>

  <g opacity="0.34">
    <circle cx="596" cy="330" r="6" fill="#34d399"/>
    <circle cx="760" cy="330" r="5" fill="#22d3ee"/>
    <circle cx="834" cy="404" r="6" fill="#4285f4"/>
    <circle cx="988" cy="404" r="5" fill="#34d399"/>
    <circle cx="660" cy="462" r="5" fill="#fbbc05"/>
    <circle cx="852" cy="396" r="5" fill="#22d3ee"/>
    <circle cx="1024" cy="396" r="6" fill="#ea4335"/>
    <circle cx="784" cy="552" r="5" fill="#34d399"/>
    <circle cx="902" cy="552" r="6" fill="#4285f4"/>
    <circle cx="1150" cy="482" r="5" fill="#22d3ee"/>
  </g>

  <g opacity="0.13" fill="#ffffff">
    <rect x="754" y="216" width="212" height="34" rx="8"/>
    <rect x="794" y="270" width="284" height="28" rx="8"/>
    <rect x="706" y="510" width="186" height="30" rx="8"/>
    <rect x="932" y="580" width="240" height="32" rx="8"/>
  </g>

  <path d="M870 642 1035 337l112 264Z" fill="#ffffff" opacity="0.035"/>
  <path d="M1035 337 1178 214l-31 387Z" fill="#ffffff" opacity="0.045"/>
  <path d="M870 642 1147 601l-112-264Z" fill="#31d0aa" opacity="0.055"/>
</svg>
